<svg xmlns="http://www.w3.org/2000/svg" viewBox="0 0 32 32">
  <path d="M16 28C14.8 28 5 20.5 5 12.5 5 9 7.7 6 11 6c1.8 0 3.4.9 5 2.5C17.6 6.9 19.2 6 21 6c3.3 0 6 3 6 6.5C27 20.5 17.2 28 16 28z" fill="#e91e63"/>
  <g stroke="rgba(255,255,255,.5)" stroke-width=".7" fill="none">
    <line x1="12" y1="11" x2="12" y2="21"/><line x1="16" y1="11" x2="16" y2="21"/><line x1="20" y1="11" x2="20" y2="21"/>
    <line x1="10" y1="13.5" x2="22" y2="13.5"/><line x1="10" y1="17" x2="22" y2="17"/><line x1="10" y1="20.5" x2="22" y2="20.5"/>
  </g>
</svg>
