<svg xmlns="http://www.w3.org/2000/svg" viewBox="0 0 512 512">
  <rect width="512" height="512" rx="72" fill="#1a1028"/>
  <defs>
    <linearGradient id="hg" x1="0" y1="0" x2="1" y2="1">
      <stop offset="0%" stop-color="#e91e63"/><stop offset="100%" stop-color="#c2185b"/>
    </linearGradient>
  </defs>
  <path d="M256 420C240 420 100 330 100 210c0-50 38-90 80-90 28 0 52 14 76 40 24-26 48-40 76-40 42 0 80 40 80 90 0 120-140 210-156 210z" fill="url(#hg)" opacity=".9"/>
  <g stroke="rgba(255,255,255,.35)" stroke-width="2" fill="none">
    <line x1="192" y1="180" x2="192" y2="340"/><line x1="256" y1="170" x2="256" y2="350"/>
    <line x1="320" y1="180" x2="320" y2="340"/><line x1="165" y1="220" x2="347" y2="220"/>
    <line x1="155" y1="270" x2="357" y2="270"/><line x1="165" y1="320" x2="347" y2="320"/>
  </g>
  <circle cx="160" cy="130" r="4" fill="#FFD700" opacity=".7"/>
  <circle cx="370" cy="140" r="3" fill="#FFD700" opacity=".6"/>
  <circle cx="130" cy="260" r="3" fill="#FFD700" opacity=".5"/>
  <circle cx="390" cy="300" r="4" fill="#FFD700" opacity=".6"/>
  <circle cx="200" cy="100" r="2.5" fill="#FFD700" opacity=".5"/>
  <circle cx="340" cy="110" r="2" fill="#FFD700" opacity=".4"/>
</svg>
